<svg width="442" height="116" viewBox="0 0 442 116" fill="none" xmlns="http://www.w3.org/2000/svg">
<path d="M413.049 82.3599L396.731 40.9092H409.182L419.158 68.0532L429.134 40.9092H441.585L419.003 98.5999H406.63L413.049 82.3599Z" fill="white"/>
<path d="M387.923 83.5977C382.819 83.5977 378.849 82.2315 376.013 79.499C373.229 76.715 371.837 72.8483 371.837 67.899V50.963H364.723V40.9097H365.109C367.275 40.9097 368.924 40.3683 370.059 39.2857C371.244 38.203 371.837 36.579 371.837 34.4136V31.3203H383.437V40.9097H393.336V50.963H383.437V67.1257C383.437 69.291 384.03 70.915 385.216 71.9977C386.402 73.0288 388.206 73.5443 390.629 73.5443C391.351 73.5443 392.253 73.467 393.336 73.3123V83.211C391.635 83.4688 389.83 83.5977 387.923 83.5977Z" fill="white"/>
<path d="M347.496 40.9093H359.096V83.1333H347.496V40.9093ZM346.8 28.9999C346.8 26.8861 347.367 25.2879 348.501 24.2052C349.635 23.071 351.234 22.5039 353.296 22.5039C355.41 22.5039 357.008 23.071 358.09 24.2052C359.225 25.2879 359.792 26.8861 359.792 28.9999C359.792 31.1137 359.225 32.7377 358.09 33.8719C357.008 34.9546 355.41 35.4959 353.296 35.4959C351.234 35.4959 349.635 34.9288 348.501 33.7946C347.367 32.6604 346.8 31.0621 346.8 28.9999Z" fill="white"/>
<path d="M320.945 84.0615C316.769 84.0615 312.954 83.1077 309.5 81.2001C306.097 79.241 303.416 76.5859 301.457 73.2348C299.498 69.8321 298.519 66.0686 298.519 61.9441C298.519 57.8197 299.498 54.0819 301.457 50.7308C303.416 47.3797 306.097 44.7503 309.5 42.8428C312.954 40.9352 316.769 39.9814 320.945 39.9814C325.688 39.9814 329.839 41.1672 333.396 43.5388C337.005 45.9103 339.454 49.0552 340.743 52.9735L330.689 57.3041C329.967 55.1903 328.73 53.5148 326.977 52.2775C325.224 51.0401 323.214 50.4215 320.945 50.4215C317.903 50.4215 315.403 51.5041 313.444 53.6695C311.485 55.8348 310.505 58.6188 310.505 62.0215C310.505 65.4241 311.485 68.2081 313.444 70.3735C315.403 72.5388 317.903 73.6215 320.945 73.6215C323.265 73.6215 325.276 73.0028 326.977 71.7655C328.73 70.5281 329.967 68.8526 330.689 66.7388L340.743 71.1468C339.505 74.9619 337.082 78.081 333.473 80.5041C329.864 82.8757 325.688 84.0615 320.945 84.0615Z" fill="white"/>
<path d="M268.203 84.0615C263.615 84.0615 260.006 82.9788 257.377 80.8135C254.747 78.6481 253.433 75.6579 253.433 71.8428C253.433 68.2339 254.67 65.2952 257.145 63.0268C259.671 60.7068 263.434 59.1343 268.435 58.3095L280.113 56.4535V55.2935C280.113 53.6952 279.468 52.3548 278.179 51.2721C276.89 50.1895 275.189 49.6481 273.075 49.6481C271.013 49.6481 269.183 50.2152 267.585 51.3495C266.038 52.4321 264.904 53.9272 264.182 55.8348L254.902 51.4268C256.139 47.921 258.434 45.137 261.785 43.0748C265.187 41.0126 269.131 39.9814 273.617 39.9814C277.122 39.9814 280.242 40.6259 282.974 41.9148C285.758 43.2037 287.898 45.0081 289.393 47.3281C290.939 49.6481 291.713 52.3032 291.713 55.2935V83.1335H280.886V79.1895C279.236 80.8392 277.38 82.0766 275.318 82.9015C273.256 83.6748 270.884 84.0615 268.203 84.0615ZM265.419 71.4561C265.419 72.745 265.883 73.7504 266.811 74.4721C267.791 75.1939 269.028 75.5548 270.523 75.5548C273.359 75.5548 275.653 74.6784 277.406 72.9255C279.21 71.121 280.113 68.9041 280.113 66.2748V64.9601L270.523 66.6615C268.822 66.9708 267.533 67.5121 266.657 68.2855C265.832 69.0588 265.419 70.1157 265.419 71.4561Z" fill="white"/>
<path d="M222.974 84.0612C218.902 84.0612 215.215 83.0816 211.916 81.1225C208.668 79.1634 206.09 76.5083 204.182 73.1572C202.326 69.806 201.398 66.094 201.398 62.0212C201.398 57.9483 202.352 54.2363 204.26 50.8851C206.167 47.534 208.745 44.8789 211.993 42.9198C215.293 40.9607 218.927 39.9811 222.897 39.9811C225.372 39.9811 227.64 40.3678 229.702 41.1411C231.816 41.9145 233.595 43.0229 235.038 44.4665V24.5918H246.638V83.1332H235.812V79.1118C234.317 80.7101 232.461 81.9474 230.244 82.8238C228.027 83.6487 225.604 84.0612 222.974 84.0612ZM213.385 62.0212C213.385 65.4238 214.416 68.2078 216.478 70.3732C218.541 72.5385 221.17 73.6212 224.366 73.6212C227.511 73.6212 230.063 72.5643 232.022 70.4505C234.033 68.2852 235.038 65.4754 235.038 62.0212C235.038 58.6185 234.033 55.8345 232.022 53.6692C230.063 51.5038 227.511 50.4211 224.366 50.4211C221.17 50.4211 218.541 51.5296 216.478 53.7465C214.416 55.9118 213.385 58.67 213.385 62.0212Z" fill="white"/>
<path d="M171.963 84.0612C166.911 84.0612 162.967 82.4888 160.131 79.3439C157.347 76.1474 155.955 71.8683 155.955 66.5065V40.9092H167.555V65.5785C167.555 68.0016 168.251 69.9607 169.643 71.4559C171.087 72.8994 172.968 73.6212 175.288 73.6212C177.608 73.6212 179.464 72.8994 180.856 71.4559C182.3 69.9607 183.022 68.0016 183.022 65.5785V40.9092H194.622V83.1332H183.795V78.0292C182.712 80.0399 181.14 81.5608 179.078 82.5919C177.067 83.5714 174.696 84.0612 171.963 84.0612Z" fill="white"/>
<path d="M117.006 25.5195H132.936L152.424 83.1329H139.355L135.488 71.3782H114.376L110.51 83.1329H97.5176L117.006 25.5195ZM132.163 60.9382L124.971 38.7435L117.702 60.9382H132.163Z" fill="white"/>
<path d="M63.8002 20.3C63.8002 31.5114 54.7116 40.6 43.5002 40.6C32.2888 40.6 23.2002 31.5114 23.2002 20.3C23.2002 9.08863 32.2888 0 43.5002 0C54.7116 0 63.8002 9.08863 63.8002 20.3Z" fill="#141415"/>
<path fill-rule="evenodd" clip-rule="evenodd" d="M32.4106 80.1467C37.0898 71.9715 37.4171 61.5045 35.9732 54.285L56.8269 50.1143C58.9274 60.617 58.8681 76.7333 50.8678 90.7109C42.3462 105.599 26.0097 116 0 116V94.733C19.617 94.733 28.2528 87.411 32.4106 80.1467Z" fill="#141415"/>
</svg>
